<svg viewBox="0 0 72 72" xmlns="http://www.w3.org/2000/svg"><g style="fill:none;stroke:#000;stroke-linecap:round;stroke-linejoin:round;stroke-miterlimit:10;stroke-width:2"><path d="m20 32 2.1418-11.1605.6996 4.1763c.1122.6679 2.3298 13.9055 2.3298 13.9055.2615 1.5604 1.6435 2.8154 3.5205 3.1974l11.3083 2.3011-11.3161 2.3026c-1.8724.381-3.2513 1.6356-3.5127 3.1963l-3.029 18.0813-3.029-18.0806c-.2615-1.5607-1.6405-2.8153-3.5131-3.1964l-11.3165-2.3025 11.3171-2.3031c1.872-.3812 3.138-2.557 3.3993-4.1174"/><path d="m42.5556 13.4499 1.5469-8.0604.5052 3.0162c.081.4824 1.6827 10.0429 1.6827 10.0429.1889 1.1269 1.1869 2.0334 2.5426 2.3092l8.167 1.662-8.1728 1.663c-1.3523.2752-2.3482 1.1812-2.5369 2.3084l-2.1876 13.0587-2.1876-13.0582c-.1889-1.1272-1.1848-2.0333-2.5372-2.3085l-8.173-1.6629 8.1735-1.6634c1.352-.2753 2.2663-1.8467 2.455-2.9736"/><path d="m53.8482 44.267 1.2335-6.4275.4029 2.4052c.0646.3847 1.3418 8.0084 1.3418 8.0084.1506.8986.9465 1.6215 2.0275 1.8414l6.5126 1.3253-6.5171 1.3261c-1.0783.2194-1.8725.9419-2.023 1.8408l-1.7445 10.4133-1.7445-10.4129c-.1506-.8988-.9448-1.6214-2.0232-1.8409l-6.5174-1.326 6.5177-1.3264c1.0781-.2195 1.8072-1.4726 1.9577-2.3712"/></g></svg>